{"title":"Loosies 2012 DvDRip XviD Ac3 Feel-Free ","uid":7101297,"size":1247726547,"categoryP":"video","categoryS":"movies","magnet":"?xt=urn:btih:01352d509a5ab1971bac22789a229aafe47d31b7&amp;dn=Loosies+2012+DvDRip+XviD+Ac3+Feel-Free+&amp;tr=udp%3A%2F%2Ftracker.openbittorrent.com%3A80&amp;tr=udp%3A%2F%2Fopen.demonii.com%3A1337&amp;tr=udp%3A%2F%2Ftracker.coppersurfer.tk%3A6969&amp;tr=udp%3A%2F%2Fexodus.desync.com%3A6969","seeders":0,"leechers":2,"uploader":".BONE.","files":8,"time":1331707298,"description":"Genre:Comedy | Drama | Romance\nLanguage:English &lt;a href=&quot;\nhttp://www.imdb.com/title/tt1568337/&quot; rel=&quot;nofollow&quot; target=&quot;_NEW&quot;&gt;\nhttp://www.imdb.com/title/tt1568337/&lt;/a&gt;\nSource:DVD Thanks!\nEncoder:Tony\n\nFormat : AVI\nFormat/Info : Audio Video Interleave\nFile size : 1.16 GiB\nDuration : 1h 28mn\nOverall bit rate : 1 873 Kbps\n\nVideo\nID : 0\nFormat : MPEG-4 Visual\nFormat profile : Advanced Simple@L5\nFormat settings, BVOP : 1\nFormat settings, QPel : No\nFormat settings, GMC : No warppoints\nFormat settings, Matrix : Default (H.263)\nCodec ID : XVID\nCodec ID/Hint : XviD\nDuration : 1h 28mn\nBit rate : 1 416 Kbps\nWidth : 640 pixels\nHeight : 360 pixels\nDisplay aspect ratio : 16:9\nFrame rate : 23.976 fps\nColor space : YUV\nChroma subsampling : 4:2:0\nBit depth : 8 bits\nScan type : Progressive\nCompression mode : Lossy\nBits/(Pixel*Frame) : 0.256\nStream size : 898 MiB (76%)\nWriting library : XviD 1.2.1 (UTC 2008-12-04)\n\nAudio\nID : 1\nFormat : AC-3\nFormat/Info : Audio Coding 3\nMode extension : CM (complete main)\nCodec ID : 2000\nDuration : 1h 28mn\nBit rate mode : Constant\nBit rate : 448 Kbps\nChannel(s) : 6 channels\nChannel positions : Front: L C R, Side: L R, LFE\nSampling rate : 48.0 KHz\nBit depth : 16 bits\nCompression mode : Lossy\nStream size : 284 MiB (24%)\nAlignment : Aligned on interleaves\nInterleave, duration : 42 ms (1.00 video frame)\nInterleave, preload duration : 512 ms\n\n\nPlot:\nA young pickpocket in the New York subways, living a fast, free, lifestyle is confronted by a woman with whom he had a one night affair.\n","torrent":{"xt":"urn:btih:01352d509a5ab1971bac22789a229aafe47d31b7","amp;dn":"Loosies+2012+DvDRip+XviD+Ac3+Feel-Free+","amp;tr":["udp%3A%2F%2Ftracker.openbittorrent.com%3A80","udp%3A%2F%2Fopen.demonii.com%3A1337","udp%3A%2F%2Ftracker.coppersurfer.tk%3A6969","udp%3A%2F%2Fexodus.desync.com%3A6969"],"infoHash":"01352d509a5ab1971bac22789a229aafe47d31b7","infoHashBuffer":{"type":"Buffer","data":[1,53,45,80,154,90,177,151,27,172,34,120,154,34,154,175,228,125,49,183]},"announce":[],"urlList":[]}}